<?xml version="1.0" ?><svg data-name="Layer 2" id="Layer_2" viewBox="0 0 272 272" xmlns="http://www.w3.org/2000/svg"><defs><style>.cls-1{fill:#564c4d;}</style></defs><title/><path class="cls-1" d="M189,82a74.62,74.62,0,0,0-42.27,13,71.46,71.46,0,0,0-6.35,4.85A74.83,74.83,0,0,0,114,157q0,3,.23,5.91a75.12,75.12,0,0,0,2.86,15.46,72.54,72.54,0,0,0,2.69,7.54,75,75,0,0,0,143.8-21A74.07,74.07,0,0,0,264,157,75,75,0,0,0,189,82Zm66.63,82.06A67,67,0,0,1,124.4,174.78a66.05,66.05,0,0,1-2.19-12.49c-.14-1.78-.21-3.56-.21-5.29a66.83,66.83,0,0,1,22.57-50.1,67.87,67.87,0,0,1,6.41-5A67,67,0,0,1,256,157,68.22,68.22,0,0,1,255.63,164.06Z"/><path class="cls-1" d="M117.1,178.35a52,52,0,1,1,23.27-78.43,75.26,75.26,0,0,1,6.35-4.87,60,60,0,1,0-26.94,90.83A74.4,74.4,0,0,1,117.1,178.35Z"/><path class="cls-1" d="M131.3,204.9A82,82,0,1,1,166.73,85.36a74.52,74.52,0,0,1,8.24-2A90,90,0,1,0,137.08,211.1,75.43,75.43,0,0,1,131.3,204.9Z"/><path class="cls-1" d="M189,112a45.05,45.05,0,0,0-45,45c0,1.17,0,2.39.14,3.58a45,45,0,0,0,89.61,1.12A42.47,42.47,0,0,0,234,157,45.05,45.05,0,0,0,189,112Zm36.8,48.85a37,37,0,0,1-73.68-.89c-.08-1-.12-2-.12-3a37,37,0,1,1,73.8,3.85Z"/><path class="cls-1" d="M189,112a45.05,45.05,0,0,0-45,45c0,1.17,0,2.39.14,3.58a45,45,0,0,0,89.61,1.12A42.47,42.47,0,0,0,234,157,45.05,45.05,0,0,0,189,112Zm36.8,48.85a37,37,0,0,1-73.68-.89c-.08-1-.12-2-.12-3a37,37,0,1,1,73.8,3.85Z"/><path class="cls-1" d="M98,182a52,52,0,1,1,42.38-82.1A71.46,71.46,0,0,1,146.73,95a60,60,0,1,0-26.95,90.86,72.54,72.54,0,0,1-2.69-7.54A51.74,51.74,0,0,1,98,182Z"/></svg>